<svg width="170" height="50" viewBox="0 0 170 50" fill="none" xmlns="http://www.w3.org/2000/svg">
    <path id="Vector" fill-rule="evenodd" clip-rule="evenodd" d="M0.250054 36.4867C-0.168146 39.8482 -0.0723971 42.5002 0.617563 44.416C1.9144 48.049 5.89505 49.9859 11.5781 49.9999C12.6543 50.003 13.7297 49.9408 14.7983 49.8138L16.6781 49.5619C19.6731 49.0916 22.5146 48.5585 25.4336 49.8516C25.4336 49.8516 32.6641 23.2044 32.8387 22.5397H18.403C20.5377 23.4829 22.5963 24.8936 22.3133 27.2601C22.2684 27.7418 22.1917 28.22 22.0838 28.6917C21.6543 30.5208 18.9198 39.8468 18.748 40.3408C18.3129 41.5975 18.0074 44.7281 13.8113 44.2691C10.6741 43.7877 10.2474 42.4974 10.2615 39.8496C10.2671 39.0575 10.4009 37.9421 10.6614 36.4909V36.4853C11.15 33.8151 12.0892 29.9932 13.5212 24.9398C15.4953 17.9705 17.1358 13.1311 18.3819 10.5085C18.5382 10.1391 18.7227 9.70526 18.8592 9.40157C18.9015 9.40157 19.8379 6.40393 22.8709 6.4865L23.6453 6.48089C25.6476 6.48089 26.9233 8.09587 26.491 10.0887L26.0264 12.5294H35.4141C35.79 11.1005 36.2617 9.73324 36.2941 8.55769C36.4194 6.30316 35.6548 4.99047 34.6326 3.54762C33.0457 1.34907 29.4663 0.229513 25.19 0.229513C19.7703 0.21272 15.256 2.14398 11.7653 6.01908C8.25499 9.92637 5.2248 16.3359 2.75362 25.0475C1.50043 29.4866 0.644317 33.3029 0.250054 36.4867ZM85.9923 49.2932H76.254C76.7511 47.5089 82.9297 24.5983 83.4747 22.5061C83.8746 20.9751 83.7422 19.2118 80.7331 19.2146C79.8306 19.2146 78.4915 19.2888 77.1073 19.6736L69.1348 49.2918H59.4148L69.0334 13.6797C71.7834 14.942 74.6305 14.7573 77.8255 14.2759C80.2347 13.9232 82.8776 13.439 86.5809 13.6279C89.5139 13.7805 91.7866 14.3557 92.8694 15.9594C93.8987 17.3995 94.0156 19.4721 93.2721 22.0569L85.9923 49.2932ZM111.653 13.9596H101.874L92.3625 49.2932H102.077L111.653 13.9596ZM144.556 13.9596H134.905L126.837 43.8325C125.492 44.2313 124.161 44.3111 123.157 44.3167C120.248 44.3195 120.119 42.5044 120.51 40.9958C120.748 40.0917 126.97 16.8117 127.763 13.961H118.039C117.975 14.2185 110.648 41.445 110.648 41.445C109.918 44.041 110.034 46.108 111.098 47.5424C112.2 49.142 114.406 49.7242 117.414 49.8711C121.11 50.0601 123.736 49.5787 126.158 49.2232C129.357 48.7236 132.218 48.592 134.927 49.8194L144.556 13.9596ZM168.133 15.9244C166.747 14.3361 164.17 13.565 160.578 13.5622C157.182 13.5566 154.467 14.1905 151.926 15.7355C149.531 17.2805 147.609 19.6736 146.899 22.2332C146.299 24.4038 146.151 26.1097 146.602 28.1641C146.943 29.6923 148.284 32.2673 150.551 34.3763C151.341 35.1558 152.061 35.8556 152.689 36.4867C153.544 37.3446 154.227 38.0751 154.677 38.6839C155.488 39.7083 155.771 40.7453 155.511 41.6437C155.252 42.6331 154.771 43.3441 154.097 43.8297C153.104 44.4888 152.007 44.8247 150.899 44.7939C150.14 44.7687 149.064 44.3839 148.591 43.7191C148.3 43.2357 148.158 42.6782 148.182 42.1153C148.187 41.7826 148.235 41.452 148.325 41.1315H140.765C140.661 41.7417 140.584 42.496 140.416 43.1985C140.323 45.0654 140.912 46.4299 141.971 47.6124C143.439 49.2148 145.936 49.9411 149.695 49.9467C153.366 49.9523 156.689 49.0972 159.183 47.4725C161.832 45.698 163.257 43.8101 164.039 40.9804C164.458 39.4522 164.532 37.8512 164.256 36.4839C164.182 36.1053 164.074 35.7339 163.934 35.3741C163.438 34.158 162.336 32.14 159.781 29.6909C157.136 27.1299 156.036 25.5555 155.508 24.6557C154.954 23.7838 154.947 22.5103 155.225 21.5181C155.475 20.5861 155.946 19.9241 156.636 19.4651C157.331 18.9431 158.24 18.7108 159.08 18.7108C160.108 18.7108 160.837 19.146 161.218 19.8975C161.437 20.3216 161.602 20.6896 161.589 21.346C161.587 21.6272 161.581 21.6272 161.485 21.9505H169.183C169.293 21.3166 169.339 20.803 169.379 20.1144C169.452 18.3847 169.076 17.0034 168.133 15.9244ZM110.489 0C107.685 0 104.71 2.3357 103.968 5.16541C103.222 7.98952 104.865 10.2888 107.774 10.2888C110.586 10.2888 113.527 7.98952 114.268 5.16541C115.083 2.3343 113.371 0 110.489 0ZM60.9031 18.221C59.7696 15.8405 57.1478 13.6475 53.2671 13.6405C48.7345 13.6349 44.8468 15.1869 41.711 18.1748C38.5766 21.2228 36.142 25.8256 34.4284 31.8055C33.9821 33.3415 33.642 34.906 33.4104 36.4881C32.8922 40.1561 33.2414 43.0068 34.1454 45.2235C35.1536 47.6754 37.6684 49.9789 43.3247 49.9789C47.1335 49.9789 49.3555 49.3282 51.5845 47.8503C53.4319 46.651 55.6946 43.9878 56.5296 41.2631H49.278C48.9204 42.4708 48.1572 43.6715 47.5757 44.1474C46.9674 44.6666 46.283 44.9926 45.4692 44.9996C43.036 45.0164 42.5206 43.2503 42.4545 41.6675C42.4164 40.7327 42.6812 38.814 43.1613 36.4937C43.4415 35.1404 43.7935 33.657 44.2047 32.1498H59.3162C59.4148 31.7747 60.4357 28.2691 60.4357 28.2691C61.479 24.1575 61.9198 20.4265 60.9031 18.221ZM53.2953 27.4294H45.5382C46.2154 24.8348 47.3757 21.9211 48.329 20.6154C49.1203 19.5547 50.3693 18.6856 51.8182 18.6856C53.3094 18.6856 53.8881 19.6092 54.019 20.8715C54.1542 22.2108 53.9191 24.6221 53.2953 27.4294Z" fill="#64ffda"/>
</svg>
